<svg width="29" height="30" viewBox="0 0 29 30" fill="none" xmlns="http://www.w3.org/2000/svg">
<mask id="mask0_272_589" style="mask-type:luminance" maskUnits="userSpaceOnUse" x="0" y="6" width="9" height="24">
<path d="M6.54482 15.0197V11.5786C6.54482 8.54814 7.17554 7.10772 4.29374 6.44961C3.00276 6.15486 1.55076 5.92869 0.20718 6.02738C0.124777 6.44263 0.0690414 6.86826 0.0384216 7.30122C-0.0218913 8.15288 0.00683875 8.99887 0.00683875 9.85087V22.3352C0.00683875 25.1663 1.24846 27.7784 3.82732 29.1592C5.34306 29.9707 6.93265 30.1556 8.48958 29.8806C6.00412 25.3948 6.54482 19.9307 6.54482 15.0197Z" fill="white"/>
</mask>
<g mask="url(#mask0_272_589)">
<path d="M8.48962 5.92871H-0.0218506V30.1556H8.48962V5.92871Z" fill="url(#paint0_linear_272_589)"/>
</g>
<mask id="mask1_272_589" style="mask-type:luminance" maskUnits="userSpaceOnUse" x="0" y="0" width="26" height="14">
<path d="M14.4081 10.48C17.4508 12.2367 20.3567 15.4805 22.9459 12.6984C23.7979 11.7831 24.701 10.6614 25.3417 9.46772V9.4678C25.03 9.19623 24.6968 8.94174 24.3457 8.70446C23.6383 8.22652 22.8913 7.82833 22.1535 7.40235L11.3415 1.16011C8.89865 -0.250275 5.99612 -0.479365 3.52165 1.05683C1.92878 2.04574 0.937254 3.48345 0.429199 5.14212C2.2724 5.0538 4.29278 5.52395 5.79319 5.98909C8.94136 6.96499 11.5487 8.82915 14.4081 10.48Z" fill="white"/>
</mask>
<g mask="url(#mask1_272_589)">
<path d="M25.3417 -0.479492H0.429199V15.4804H25.3417V-0.479492Z" fill="url(#paint1_linear_272_589)"/>
</g>
<mask id="mask2_272_589" style="mask-type:luminance" maskUnits="userSpaceOnUse" x="7" y="10" width="22" height="20">
<path d="M28.0119 14.8436C27.9519 12.9635 27.1977 11.3818 26.0086 10.1104C23.1928 15.1296 19.1404 16.8277 14.4081 19.5599L11.1897 21.4179C9.40046 22.4511 7.40134 22.8726 7.69753 24.59C7.95697 26.0934 8.4409 28.0772 9.32427 29.6892C9.8837 29.5314 10.4363 29.3169 10.9769 29.054C11.7445 28.6804 12.4629 28.2324 13.2008 27.8064L24.0125 21.5643C26.4642 20.1487 28.1055 17.7675 28.0119 14.8436Z" fill="white"/>
</mask>
<g mask="url(#mask2_272_589)">
<path d="M28.1053 10.1104H7.40125V29.6892H28.1053V10.1104Z" fill="url(#paint2_linear_272_589)"/>
</g>
<path fill-rule="evenodd" clip-rule="evenodd" d="M8.48959 29.8806C1.80737 27.4251 1.72019 12.7871 3.74492 6.33095C2.59978 6.09808 1.3633 5.94246 0.207181 6.02738C0.124778 6.44263 0.0690426 6.86826 0.0384228 7.30122C-0.0218901 8.15288 0.00683763 8.99887 0.00683763 9.85087V22.3352C0.00683763 25.1663 1.24846 27.7784 3.82732 29.1592C5.34306 29.9707 6.93267 30.1556 8.48959 29.8806Z" fill="#47EBE0"/>
<path fill-rule="evenodd" clip-rule="evenodd" d="M26.0086 10.1104C27.5322 17.2294 14.6003 25.3155 8.19055 26.7995C8.46477 27.7801 8.83264 28.7921 9.32428 29.6892C9.8837 29.5314 10.4364 29.3169 10.9769 29.054C11.7445 28.6804 12.463 28.2324 13.2008 27.8064L24.0125 21.5643C26.4642 20.1487 28.1055 17.7674 28.0119 14.8435C27.9519 12.9635 27.1977 11.3818 26.0086 10.1104Z" fill="#FFBCD8"/>
<path fill-rule="evenodd" clip-rule="evenodd" d="M0.429199 5.14212C5.73639 0.304742 18.9451 7.13979 23.6349 11.9218C24.2623 11.1776 24.8725 10.342 25.3417 9.4678C24.3289 8.58571 23.3093 8.06967 22.1534 7.40235L11.3415 1.16011C8.89865 -0.250275 5.99612 -0.479365 3.52165 1.05683C1.92878 2.04574 0.937254 3.48345 0.429199 5.14212Z" fill="#FDE3A7"/>
<path fill-rule="evenodd" clip-rule="evenodd" d="M12.3261 4.94813C14.0862 4.87324 16.2722 5.00107 18.91 5.52972L11.3415 1.16011C8.89865 -0.250275 5.99612 -0.479365 3.52165 1.05683C1.92878 2.04574 0.937254 3.48345 0.429199 5.14212C2.2724 5.0538 4.29278 5.52395 5.79319 5.9891C6.07418 6.07617 6.35083 6.17039 6.62384 6.27082C6.62384 6.27082 8.43211 5.11372 12.3261 4.94813Z" fill="#FDE3A7"/>
<path fill-rule="evenodd" clip-rule="evenodd" d="M26.0086 10.1104C24.9436 12.0089 23.7016 13.4321 22.3128 14.616C22.3128 14.616 21.8918 17.097 20.4768 20.2383C19.7478 21.8568 18.755 23.6504 17.4202 25.3703L24.0125 21.5643C26.4642 20.1487 28.1054 17.7674 28.0119 14.8435C27.9519 12.9635 27.1977 11.3818 26.0086 10.1104Z" fill="#FFCF4B"/>
<path fill-rule="evenodd" clip-rule="evenodd" d="M6.74329 24.2186C6.74329 24.2186 4.88963 23.1729 3.05739 20.9686C1.85452 19.5215 0.660859 17.5752 0.00683594 15.0977V22.3352C0.00683594 25.1663 1.24846 27.7784 3.82732 29.1592C5.34306 29.9708 6.93265 30.1557 8.48958 29.8807C7.51064 28.1139 7.00124 26.1955 6.74329 24.2186Z" fill="#51F5EA"/>
<defs>
<linearGradient id="paint0_linear_272_589" x1="2.45723" y1="9.54048" x2="6.72964" y2="29.9849" gradientUnits="userSpaceOnUse">
<stop stop-color="#003780"/>
<stop offset="1" stop-color="#4BACC4"/>
</linearGradient>
<linearGradient id="paint1_linear_272_589" x1="6.71" y1="1.09032" x2="20.0809" y2="14.9693" gradientUnits="userSpaceOnUse">
<stop stop-color="#F9BF3B"/>
<stop offset="1" stop-color="#D119B9"/>
</linearGradient>
<linearGradient id="paint2_linear_272_589" x1="12.5276" y1="23.4095" x2="28.9452" y2="12.383" gradientUnits="userSpaceOnUse">
<stop stop-color="#003780"/>
<stop offset="1" stop-color="#E848D3"/>
</linearGradient>
</defs>
</svg>
