<svg width="170" height="30" viewBox="0 0 170 30" fill="none" xmlns="http://www.w3.org/2000/svg">
<mask id="mask0_272_687" style="mask-type:luminance" maskUnits="userSpaceOnUse" x="0" y="6" width="9" height="24">
<path d="M6.54482 15.0197V11.5786C6.54482 8.54814 7.17554 7.10772 4.29374 6.44961C3.00276 6.15486 1.55076 5.92869 0.20718 6.02738C0.124777 6.44263 0.0690414 6.86826 0.0384216 7.30122C-0.0218913 8.15288 0.00683875 8.99887 0.00683875 9.85087V22.3352C0.00683875 25.1663 1.24846 27.7784 3.82732 29.1592C5.34306 29.9707 6.93265 30.1556 8.48958 29.8806C6.00412 25.3948 6.54482 19.9307 6.54482 15.0197Z" fill="white"/>
</mask>
<g mask="url(#mask0_272_687)">
<path d="M8.48962 5.92871H-0.0218506V30.1556H8.48962V5.92871Z" fill="url(#paint0_linear_272_687)"/>
</g>
<mask id="mask1_272_687" style="mask-type:luminance" maskUnits="userSpaceOnUse" x="0" y="0" width="26" height="14">
<path d="M14.4081 10.48C17.4508 12.2367 20.3567 15.4805 22.9459 12.6984C23.7979 11.7831 24.701 10.6614 25.3417 9.46772V9.4678C25.03 9.19623 24.6968 8.94174 24.3457 8.70446C23.6383 8.22652 22.8913 7.82833 22.1535 7.40235L11.3415 1.16011C8.89865 -0.250275 5.99612 -0.479365 3.52165 1.05683C1.92878 2.04574 0.937254 3.48345 0.429199 5.14212C2.2724 5.0538 4.29278 5.52395 5.79319 5.98909C8.94136 6.96499 11.5487 8.82915 14.4081 10.48Z" fill="white"/>
</mask>
<g mask="url(#mask1_272_687)">
<path d="M25.3417 -0.479492H0.429199V15.4804H25.3417V-0.479492Z" fill="url(#paint1_linear_272_687)"/>
</g>
<mask id="mask2_272_687" style="mask-type:luminance" maskUnits="userSpaceOnUse" x="7" y="10" width="22" height="20">
<path d="M28.0119 14.8436C27.9519 12.9635 27.1977 11.3818 26.0086 10.1104C23.1928 15.1296 19.1404 16.8277 14.4081 19.5599L11.1897 21.4179C9.40046 22.4511 7.40134 22.8726 7.69753 24.59C7.95697 26.0934 8.4409 28.0772 9.32427 29.6892C9.8837 29.5314 10.4363 29.3169 10.9769 29.054C11.7445 28.6804 12.4629 28.2324 13.2008 27.8064L24.0125 21.5643C26.4642 20.1487 28.1055 17.7675 28.0119 14.8436Z" fill="white"/>
</mask>
<g mask="url(#mask2_272_687)">
<path d="M28.1053 10.1104H7.40125V29.6892H28.1053V10.1104Z" fill="url(#paint2_linear_272_687)"/>
</g>
<path fill-rule="evenodd" clip-rule="evenodd" d="M8.48959 29.8806C1.80737 27.4251 1.72019 12.7871 3.74492 6.33095C2.59978 6.09808 1.3633 5.94246 0.207181 6.02738C0.124778 6.44263 0.0690426 6.86826 0.0384228 7.30122C-0.0218901 8.15288 0.00683763 8.99887 0.00683763 9.85087V22.3352C0.00683763 25.1663 1.24846 27.7784 3.82732 29.1592C5.34306 29.9707 6.93267 30.1556 8.48959 29.8806Z" fill="#47EBE0"/>
<path fill-rule="evenodd" clip-rule="evenodd" d="M26.0086 10.1104C27.5322 17.2294 14.6003 25.3155 8.19055 26.7995C8.46477 27.7801 8.83264 28.7921 9.32428 29.6892C9.8837 29.5314 10.4364 29.3169 10.9769 29.054C11.7445 28.6804 12.463 28.2324 13.2008 27.8064L24.0125 21.5643C26.4642 20.1487 28.1055 17.7674 28.0119 14.8435C27.9519 12.9635 27.1977 11.3818 26.0086 10.1104Z" fill="#FFBCD8"/>
<path fill-rule="evenodd" clip-rule="evenodd" d="M0.429199 5.14212C5.73639 0.304742 18.9451 7.13979 23.6349 11.9218C24.2623 11.1776 24.8725 10.342 25.3417 9.4678C24.3289 8.58571 23.3093 8.06967 22.1534 7.40235L11.3415 1.16011C8.89865 -0.250275 5.99612 -0.479365 3.52165 1.05683C1.92878 2.04574 0.937254 3.48345 0.429199 5.14212Z" fill="#FDE3A7"/>
<path fill-rule="evenodd" clip-rule="evenodd" d="M12.3261 4.94813C14.0862 4.87324 16.2722 5.00107 18.91 5.52972L11.3415 1.16011C8.89865 -0.250275 5.99612 -0.479365 3.52165 1.05683C1.92878 2.04574 0.937254 3.48345 0.429199 5.14212C2.2724 5.0538 4.29278 5.52395 5.79319 5.9891C6.07418 6.07617 6.35083 6.17039 6.62384 6.27082C6.62384 6.27082 8.43211 5.11372 12.3261 4.94813Z" fill="#FDE3A7"/>
<path fill-rule="evenodd" clip-rule="evenodd" d="M26.0086 10.1104C24.9436 12.0089 23.7016 13.4321 22.3128 14.616C22.3128 14.616 21.8918 17.097 20.4768 20.2383C19.7478 21.8568 18.755 23.6504 17.4202 25.3703L24.0125 21.5643C26.4642 20.1487 28.1054 17.7674 28.0119 14.8435C27.9519 12.9635 27.1977 11.3818 26.0086 10.1104Z" fill="#FFCF4B"/>
<path fill-rule="evenodd" clip-rule="evenodd" d="M6.74329 24.2186C6.74329 24.2186 4.88963 23.1729 3.05739 20.9686C1.85452 19.5215 0.660859 17.5752 0.00683594 15.0977V22.3352C0.00683594 25.1663 1.24846 27.7784 3.82732 29.1592C5.34306 29.9708 6.93265 30.1557 8.48959 29.8807C7.51064 28.1139 7.00124 26.1955 6.74329 24.2186Z" fill="#51F5EA"/>
<path d="M46.3864 2.72727V26H40.7614V2.72727H46.3864ZM55.4744 16.0455V26H49.9176V8.54545H55.2017V11.75H55.3949C55.7813 10.6818 56.4403 9.8447 57.3722 9.23864C58.304 8.625 59.4138 8.31818 60.7017 8.31818C61.929 8.31818 62.9934 8.5947 63.8949 9.14773C64.804 9.69318 65.5085 10.4583 66.0085 11.4432C66.5161 12.4205 66.7661 13.5644 66.7585 14.875V26H61.2017V15.9659C61.2093 14.9962 60.9631 14.2386 60.4631 13.6932C59.9706 13.1477 59.285 12.875 58.4062 12.875C57.8229 12.875 57.3078 13.0038 56.8608 13.2614C56.4214 13.5114 56.0805 13.8712 55.8381 14.3409C55.6032 14.8106 55.482 15.3788 55.4744 16.0455ZM80.1193 8.54545V12.6364H68.892V8.54545H80.1193ZM71.233 26V7.65909C71.233 6.31061 71.4867 5.19318 71.9943 4.30682C72.5019 3.41288 73.2064 2.74621 74.108 2.30682C75.0095 1.85985 76.0511 1.63636 77.233 1.63636C78.0057 1.63636 78.733 1.69697 79.4148 1.81818C80.1042 1.93182 80.6155 2.03409 80.9489 2.125L80.0625 6.19318C79.858 6.125 79.608 6.06818 79.3125 6.02273C79.0246 5.97727 78.7519 5.95454 78.4943 5.95454C77.8428 5.95454 77.3958 6.09848 77.1534 6.38636C76.911 6.67424 76.7898 7.06818 76.7898 7.56818V26H71.233ZM88.3494 2.72727V26H82.7926V2.72727H88.3494ZM103.148 18.4659V8.54545H108.693V26H103.398V22.75H103.216C102.83 23.8182 102.17 24.6667 101.239 25.2955C100.314 25.9167 99.197 26.2273 97.8864 26.2273C96.697 26.2273 95.6515 25.9545 94.75 25.4091C93.8485 24.8636 93.1477 24.1023 92.6477 23.125C92.1477 22.1402 91.8939 20.9886 91.8864 19.6705V8.54545H97.4432V18.5795C97.4508 19.5265 97.7008 20.2727 98.1932 20.8182C98.6856 21.3636 99.3561 21.6364 100.205 21.6364C100.758 21.6364 101.254 21.5152 101.693 21.2727C102.14 21.0227 102.492 20.6629 102.75 20.1932C103.015 19.7159 103.148 19.1402 103.148 18.4659ZM122.082 8.54545V12.6364H111.071V8.54545H122.082ZM113.378 4.36364H118.935V20.5114C118.935 20.8523 118.988 21.1288 119.094 21.3409C119.207 21.5455 119.37 21.6932 119.582 21.7841C119.795 21.8674 120.048 21.9091 120.344 21.9091C120.556 21.9091 120.779 21.8902 121.014 21.8523C121.257 21.8068 121.438 21.7689 121.56 21.7386L122.401 25.75C122.135 25.8258 121.76 25.9205 121.276 26.0341C120.798 26.1477 120.226 26.2197 119.56 26.25C118.257 26.3106 117.139 26.1591 116.207 25.7955C115.283 25.4242 114.575 24.8485 114.082 24.0682C113.598 23.2879 113.363 22.3068 113.378 21.125V4.36364ZM124.918 26V8.54545H130.474V26H124.918ZM127.702 6.51136C126.921 6.51136 126.251 6.25379 125.69 5.73864C125.13 5.21591 124.849 4.58712 124.849 3.85227C124.849 3.125 125.13 2.50379 125.69 1.98864C126.251 1.46591 126.921 1.20454 127.702 1.20454C128.49 1.20454 129.16 1.46591 129.713 1.98864C130.274 2.50379 130.554 3.125 130.554 3.85227C130.554 4.58712 130.274 5.21591 129.713 5.73864C129.16 6.25379 128.49 6.51136 127.702 6.51136ZM142.159 26.3295C140.318 26.3295 138.739 25.9508 137.42 25.1932C136.11 24.4356 135.102 23.3826 134.398 22.0341C133.693 20.678 133.341 19.1098 133.341 17.3295C133.341 15.5417 133.693 13.9735 134.398 12.625C135.11 11.2689 136.121 10.2121 137.432 9.45454C138.75 8.69697 140.322 8.31818 142.148 8.31818C143.761 8.31818 145.167 8.60985 146.364 9.19318C147.568 9.77651 148.508 10.6023 149.182 11.6705C149.864 12.7311 150.223 13.9773 150.261 15.4091H145.068C144.962 14.5152 144.659 13.8144 144.159 13.3068C143.667 12.7992 143.023 12.5455 142.227 12.5455C141.583 12.5455 141.019 12.7273 140.534 13.0909C140.049 13.447 139.67 13.9773 139.398 14.6818C139.133 15.3788 139 16.2424 139 17.2727C139 18.303 139.133 19.1742 139.398 19.8864C139.67 20.5909 140.049 21.125 140.534 21.4886C141.019 21.8447 141.583 22.0227 142.227 22.0227C142.742 22.0227 143.197 21.9129 143.591 21.6932C143.992 21.4735 144.322 21.1515 144.58 20.7273C144.837 20.2955 145 19.7727 145.068 19.1591H150.261C150.208 20.5985 149.848 21.8561 149.182 22.9318C148.523 24.0076 147.595 24.8447 146.398 25.4432C145.208 26.0341 143.795 26.3295 142.159 26.3295ZM168.344 13.875L163.241 14.0114C163.188 13.6477 163.045 13.3258 162.81 13.0455C162.575 12.7576 162.268 12.5341 161.889 12.375C161.518 12.2083 161.086 12.125 160.594 12.125C159.95 12.125 159.401 12.2538 158.946 12.5114C158.499 12.7689 158.279 13.1174 158.287 13.5568C158.279 13.8977 158.416 14.1932 158.696 14.4432C158.984 14.6932 159.495 14.8939 160.23 15.0455L163.594 15.6818C165.336 16.0152 166.632 16.5682 167.48 17.3409C168.336 18.1136 168.768 19.1364 168.776 20.4091C168.768 21.6061 168.412 22.6477 167.707 23.5341C167.01 24.4205 166.056 25.1098 164.844 25.6023C163.632 26.0871 162.245 26.3295 160.685 26.3295C158.192 26.3295 156.226 25.8182 154.787 24.7955C153.355 23.7652 152.537 22.3864 152.332 20.6591L157.821 20.5227C157.942 21.1591 158.257 21.6439 158.764 21.9773C159.272 22.3106 159.92 22.4773 160.707 22.4773C161.42 22.4773 161.999 22.3447 162.446 22.0795C162.893 21.8144 163.12 21.4621 163.128 21.0227C163.12 20.6288 162.946 20.3144 162.605 20.0795C162.264 19.8371 161.73 19.6477 161.003 19.5114L157.957 18.9318C156.207 18.6136 154.904 18.0265 154.048 17.1705C153.192 16.3068 152.768 15.2083 152.776 13.875C152.768 12.7083 153.079 11.7121 153.707 10.8864C154.336 10.053 155.23 9.41667 156.389 8.97727C157.548 8.53788 158.916 8.31818 160.491 8.31818C162.855 8.31818 164.719 8.81439 166.082 9.80682C167.446 10.7917 168.2 12.1477 168.344 13.875Z" fill="white"/>
<defs>
<linearGradient id="paint0_linear_272_687" x1="2.45723" y1="9.54048" x2="6.72964" y2="29.9849" gradientUnits="userSpaceOnUse">
<stop stop-color="#003780"/>
<stop offset="1" stop-color="#4BACC4"/>
</linearGradient>
<linearGradient id="paint1_linear_272_687" x1="6.71" y1="1.09032" x2="20.0809" y2="14.9693" gradientUnits="userSpaceOnUse">
<stop stop-color="#F9BF3B"/>
<stop offset="1" stop-color="#D119B9"/>
</linearGradient>
<linearGradient id="paint2_linear_272_687" x1="12.5276" y1="23.4095" x2="28.9452" y2="12.383" gradientUnits="userSpaceOnUse">
<stop stop-color="#003780"/>
<stop offset="1" stop-color="#E848D3"/>
</linearGradient>
</defs>
</svg>
