<svg width="173" height="50" viewBox="0 0 173 50" fill="none" xmlns="http://www.w3.org/2000/svg">
<path d="M25.4526 50C39.5097 50 50.9053 38.8071 50.9053 25C50.9053 11.1929 39.5097 0 25.4526 0C11.3956 0 0 11.1929 0 25C0 38.8071 11.3956 50 25.4526 50Z" fill="#3746D2"/>
<path fill-rule="evenodd" clip-rule="evenodd" d="M9.58794 34.1419L8.72583 34.4354L8.81984 33.5439C9.11099 30.7851 9.40213 28.0264 9.69328 25.2676L7.3894 36.6452C7.3894 36.6452 12.1578 32.9135 19.6329 33.7152C16.3512 32.9056 12.8547 33.0293 9.58794 34.1419Z" fill="white"/>
<path fill-rule="evenodd" clip-rule="evenodd" d="M23.95 34.7509C19.4992 32.3961 14.2211 31.9603 9.39758 33.603C9.7921 29.8643 10.1867 26.1258 10.5811 22.3872C13.6166 21.3557 16.8068 20.901 19.9843 21.029C20.805 22.3263 21.382 23.8295 21.8032 25.5519C22.2246 27.2747 22.5669 29.0131 22.9453 30.7447C23.2409 32.098 23.5612 33.4323 23.95 34.7509ZM30.9644 21.0211C34.0703 20.9218 37.1845 21.379 40.1512 22.387C40.5457 26.1256 40.9401 29.8643 41.3347 33.6029C36.3401 31.9019 30.8579 32.4295 26.3116 35.0086C26.4524 34.1363 26.5979 33.2646 26.7705 32.3928C27.2183 30.1316 27.8055 27.9153 28.5473 25.7293C29.1119 24.0662 29.9121 22.447 30.9644 21.0211Z" fill="white"/>
<path fill-rule="evenodd" clip-rule="evenodd" d="M41.1445 34.1419L42.0066 34.4354L41.9126 33.5439C41.6215 30.7851 41.3304 28.0264 41.0393 25.2676L43.3431 36.6452C43.3431 36.6452 38.5747 32.9135 31.0996 33.7152C34.3814 32.9056 37.8779 33.0293 41.1445 34.1419Z" fill="white"/>
<path fill-rule="evenodd" clip-rule="evenodd" d="M25.3661 36.6452C23.8452 32.6617 23.3629 28.9641 22.3853 24.9665C21.5344 21.488 19.8897 17.823 14.9138 15.6848C14.9138 15.6848 21.8819 14.9354 25.366 23.4377C25.366 23.4377 27.5434 17.8238 32.7696 17.8238C32.7696 17.8238 29.7211 19.9626 27.979 25.0957C26.2371 30.2289 25.8017 34.0787 25.3661 36.6452Z" fill="white"/>
<path fill-rule="evenodd" clip-rule="evenodd" d="M25.4157 12.9033C27.2158 12.9033 28.6751 14.3366 28.6751 16.1047C28.6751 17.8728 27.2158 19.3061 25.4157 19.3061C23.6158 19.3061 22.1565 17.8728 22.1565 16.1047C22.1565 14.3366 23.6158 12.9033 25.4157 12.9033Z" fill="white"/>
<path d="M62.696 37V31.996H75.404V37H62.696ZM62.696 16.804V11.8H75.404V16.804H62.696ZM62.696 26.2V21.304H74.684V26.2H62.696ZM58.664 11.8H64.496V37H58.664V11.8ZM92.3794 8.92H97.8154V37H92.3794V8.92ZM78.8434 28.72C78.8434 26.848 79.2154 25.276 79.9594 24.004C80.7274 22.732 81.7114 21.76 82.9114 21.088C84.1114 20.416 85.3834 20.08 86.7274 20.08C88.1194 20.08 89.3434 20.428 90.3994 21.124C91.4794 21.82 92.3314 22.816 92.9554 24.112C93.5794 25.384 93.8914 26.92 93.8914 28.72C93.8914 30.496 93.5794 32.032 92.9554 33.328C92.3314 34.624 91.4794 35.62 90.3994 36.316C89.3434 37.012 88.1194 37.36 86.7274 37.36C85.3834 37.36 84.1114 37.024 82.9114 36.352C81.7114 35.68 80.7274 34.708 79.9594 33.436C79.2154 32.14 78.8434 30.568 78.8434 28.72ZM84.5674 28.72C84.5674 29.584 84.7474 30.34 85.1074 30.988C85.4674 31.612 85.9474 32.104 86.5474 32.464C87.1474 32.8 87.8074 32.968 88.5274 32.968C89.1514 32.968 89.7514 32.8 90.3274 32.464C90.9274 32.128 91.4194 31.648 91.8034 31.024C92.1874 30.376 92.3794 29.608 92.3794 28.72C92.3794 27.832 92.1874 27.076 91.8034 26.452C91.4194 25.804 90.9274 25.312 90.3274 24.976C89.7514 24.64 89.1514 24.472 88.5274 24.472C87.8074 24.472 87.1474 24.652 86.5474 25.012C85.9474 25.348 85.4674 25.84 85.1074 26.488C84.7474 27.112 84.5674 27.856 84.5674 28.72ZM107.722 30.52C107.722 31.48 107.902 32.236 108.262 32.788C108.622 33.316 109.246 33.58 110.134 33.58C110.734 33.58 111.238 33.46 111.646 33.22C112.078 32.98 112.414 32.632 112.654 32.176C112.894 31.72 113.014 31.168 113.014 30.52V20.44H118.45V37H113.014V34.516C112.51 35.404 111.85 36.112 111.034 36.64C110.218 37.144 109.198 37.396 107.974 37.396C105.91 37.396 104.398 36.844 103.438 35.74C102.502 34.612 102.034 33.064 102.034 31.096V20.44H107.722V30.52ZM120.797 20.44H130.193V23.86H120.797V20.44ZM123.569 14.68H127.421V37H123.569V14.68ZM132.731 13.852C132.731 13.18 132.971 12.616 133.451 12.16C133.955 11.704 134.531 11.476 135.179 11.476C135.875 11.476 136.451 11.704 136.907 12.16C137.387 12.616 137.627 13.18 137.627 13.852C137.627 14.5 137.387 15.064 136.907 15.544C136.451 16 135.875 16.228 135.179 16.228C134.531 16.228 133.955 16 133.451 15.544C132.971 15.064 132.731 14.5 132.731 13.852ZM133.271 20.44H137.087V37H133.271V20.44ZM145.029 28.72C145.029 29.776 145.257 30.7 145.713 31.492C146.169 32.26 146.781 32.872 147.549 33.328C148.341 33.784 149.217 34.012 150.177 34.012C150.969 34.012 151.725 33.892 152.445 33.652C153.165 33.412 153.801 33.076 154.353 32.644C154.905 32.212 155.313 31.732 155.577 31.204V35.488C155.001 36.064 154.221 36.52 153.237 36.856C152.253 37.192 151.173 37.36 149.997 37.36C148.293 37.36 146.757 37 145.389 36.28C144.045 35.536 142.977 34.516 142.185 33.22C141.417 31.9 141.033 30.4 141.033 28.72C141.033 27.016 141.417 25.516 142.185 24.22C142.977 22.924 144.045 21.916 145.389 21.196C146.757 20.452 148.293 20.08 149.997 20.08C151.173 20.08 152.253 20.248 153.237 20.584C154.221 20.92 155.001 21.376 155.577 21.952V26.236C155.313 25.684 154.893 25.204 154.317 24.796C153.765 24.364 153.129 24.028 152.409 23.788C151.689 23.548 150.945 23.428 150.177 23.428C149.217 23.428 148.341 23.656 147.549 24.112C146.781 24.568 146.169 25.192 145.713 25.984C145.257 26.776 145.029 27.688 145.029 28.72ZM160.631 31.564C161.159 32.14 161.687 32.644 162.215 33.076C162.767 33.484 163.319 33.796 163.871 34.012C164.423 34.204 164.975 34.3 165.527 34.3C166.223 34.3 166.763 34.144 167.147 33.832C167.555 33.52 167.759 33.088 167.759 32.536C167.759 32.056 167.603 31.648 167.291 31.312C166.979 30.952 166.547 30.652 165.995 30.412C165.443 30.148 164.795 29.884 164.051 29.62C163.307 29.332 162.563 28.996 161.819 28.612C161.099 28.204 160.499 27.676 160.019 27.028C159.563 26.38 159.335 25.564 159.335 24.58C159.335 23.572 159.587 22.732 160.091 22.06C160.619 21.388 161.315 20.896 162.179 20.584C163.067 20.248 164.015 20.08 165.023 20.08C165.935 20.08 166.787 20.212 167.579 20.476C168.395 20.74 169.127 21.088 169.775 21.52C170.423 21.952 170.975 22.444 171.431 22.996L169.271 25.3C168.719 24.652 168.059 24.124 167.291 23.716C166.523 23.308 165.731 23.104 164.915 23.104C164.363 23.104 163.907 23.224 163.547 23.464C163.187 23.704 163.007 24.052 163.007 24.508C163.007 24.892 163.163 25.24 163.475 25.552C163.811 25.84 164.243 26.104 164.771 26.344C165.323 26.584 165.935 26.836 166.607 27.1C167.519 27.46 168.359 27.856 169.127 28.288C169.895 28.72 170.507 29.248 170.963 29.872C171.443 30.496 171.683 31.312 171.683 32.32C171.683 33.88 171.143 35.14 170.063 36.1C169.007 37.036 167.567 37.504 165.743 37.504C164.615 37.504 163.571 37.336 162.611 37C161.675 36.64 160.847 36.184 160.127 35.632C159.431 35.056 158.843 34.456 158.363 33.832L160.631 31.564Z" fill="#181818"/>
</svg>
