<svg width="299" height="138" viewBox="0 0 299 138" fill="none" xmlns="http://www.w3.org/2000/svg">
<path d="M296.754 108.74C294.768 116.122 288.896 122.206 279.728 126.831C270.561 131.455 258.201 134.563 243.479 136.025C214.043 138.95 175.384 135.278 134.498 124.278C93.6122 113.278 58.3286 97.0561 34.334 79.7561C22.3336 71.1039 13.2018 62.2141 7.59242 53.6142C1.98258 45.0136 -0.0439731 36.805 1.94229 29.4223C3.92855 22.0397 9.80034 15.956 18.9683 11.3314C28.1356 6.70706 40.4953 3.59936 55.217 2.13656C84.653 -0.788307 123.313 2.88404 164.199 13.8841C205.084 24.8841 240.368 41.1058 264.362 58.4057C276.363 67.058 285.495 75.9478 291.104 84.5477C296.714 93.1482 298.74 101.357 296.754 108.74Z" stroke="#FF0000" stroke-width="2"/>
</svg>
