<svg width="16" height="14" viewBox="0 0 16 14" fill="none" xmlns="http://www.w3.org/2000/svg">
<path d="M7.38397 13.1797C7.34153 13.1797 7.29954 13.171 7.26066 13.1539C7.22178 13.1369 7.18683 13.1121 7.15803 13.0809L1.06612 6.49119C1.02551 6.44726 0.99859 6.39244 0.988651 6.33344C0.978712 6.27445 0.986187 6.21384 1.01016 6.15902C1.03414 6.10421 1.07357 6.05758 1.12364 6.02483C1.17371 5.99208 1.23223 5.97464 1.29206 5.97464H4.22437C4.26839 5.97464 4.31191 5.98409 4.35197 6.00234C4.39204 6.0206 4.42772 6.04723 4.45661 6.08045L6.49255 8.42273C6.71258 7.95239 7.13852 7.16925 7.88597 6.21497C8.99095 4.8042 11.0463 2.7294 14.5627 0.85642C14.6307 0.820227 14.7097 0.810833 14.7843 0.830094C14.8588 0.849355 14.9235 0.895871 14.9654 0.960456C15.0073 1.02504 15.0235 1.103 15.0108 1.17894C14.998 1.25488 14.9573 1.32328 14.8966 1.37064C14.8831 1.38113 13.5273 2.44882 11.967 4.40448C10.5309 6.20417 8.62191 9.14694 7.68255 12.946C7.66605 13.0128 7.62767 13.0721 7.57354 13.1144C7.5194 13.1568 7.45263 13.1799 7.38388 13.1799L7.38397 13.1797Z" fill="#FF0000"/>
</svg>
