<svg width="172" height="38" viewBox="0 0 172 38" fill="none" xmlns="http://www.w3.org/2000/svg">
<path d="M2 2C10.503 2 10.503 36.382 19.006 36.382C27.509 36.382 27.509 2 36.012 2C44.515 2 44.515 36.382 52.998 36.382C61.5013 36.382 61.5013 2 69.9841 2C78.4873 2 78.4873 36.382 86.9701 36.382C95.4733 36.382 95.4733 2 103.976 2C112.479 2 112.479 36.382 120.982 36.382C129.485 36.382 129.485 2 137.988 2C146.491 2 146.491 36.382 154.994 36.382C163.497 36.382 163.497 2 172 2" stroke="white" stroke-width="3" stroke-miterlimit="10" stroke-linecap="round"/>
</svg>
