<?xml version="1.0" standalone="no"?>
<!DOCTYPE svg PUBLIC "-//W3C//DTD SVG 20010904//EN"
 "http://www.w3.org/TR/2001/REC-SVG-20010904/DTD/svg10.dtd">
<svg version="1.0" xmlns="http://www.w3.org/2000/svg"
 width="84.000000pt" height="84.000000pt" viewBox="0 0 84.000000 84.000000"
 preserveAspectRatio="xMidYMid meet">

<g transform="translate(0.000000,84.000000) scale(0.100000,-0.100000)"
fill="#000000" stroke="none">
<path d="M580 740 c0 -5 5 -10 10 -10 6 0 10 5 10 10 0 6 -4 10 -10 10 -5 0
-10 -4 -10 -10z"/>
<path d="M225 730 c-3 -5 -2 -10 4 -10 5 0 13 5 16 10 3 6 2 10 -4 10 -5 0
-13 -4 -16 -10z"/>
<path d="M550 730 c0 -5 5 -10 10 -10 6 0 10 5 10 10 0 6 -4 10 -10 10 -5 0
-10 -4 -10 -10z"/>
<path d="M337 709 c-4 -14 -1 -27 6 -31 8 -5 13 0 15 13 5 31 -14 46 -21 18z"/>
<path d="M495 690 c-4 -6 -3 -16 3 -22 6 -6 12 -6 17 2 4 6 3 16 -3 22 -6 6
-12 6 -17 -2z"/>
<path d="M228 667 c-92 -86 -68 -261 44 -321 35 -19 35 -19 66 4 44 32 66 81
51 113 -6 14 -18 24 -28 22 -9 -1 -10 0 -3 2 10 4 10 8 2 18 -10 12 -7 12 13
2 14 -6 23 -16 20 -22 -2 -5 4 0 15 12 l20 23 -5 -43 c-10 -76 -28 -104 -94
-147 -69 -45 -70 -46 -8 -25 62 21 89 37 83 46 -3 5 3 6 12 2 12 -4 15 -3 10
5 -5 8 -1 10 10 5 14 -5 12 -9 -12 -22 -24 -13 -26 -16 -10 -19 59 -12 182 81
204 156 22 74 16 98 -25 93 -7 -1 -13 5 -13 13 0 13 -4 13 -36 0 -20 -8 -38
-13 -41 -10 -2 2 5 7 16 11 15 4 21 15 21 36 0 16 -2 29 -4 29 -2 0 -13 -15
-25 -32 l-21 -33 -1 30 c-1 19 -3 23 -6 12 -5 -18 -6 -18 -20 2 -8 12 -12 30
-8 41 9 29 -11 25 -42 -7 l-25 -28 26 -3 c31 -4 50 -35 42 -68 -5 -20 -3 -24
15 -24 26 0 17 -13 -10 -15 -16 -1 -18 4 -15 29 6 45 -4 66 -31 66 -16 0 -26
-8 -33 -27 -9 -23 -11 -24 -11 -7 -1 11 2 24 6 28 11 11 13 45 3 51 -5 3 -12
-7 -16 -22 -10 -46 -12 -50 -13 -17 -1 32 -16 54 -38 54 -7 0 -13 -7 -13 -15
0 -21 -9 -19 -29 6 l-16 21 -27 -25z m32 -7 c0 -5 -4 -10 -10 -10 -5 0 -10 5
-10 10 0 6 5 10 10 10 6 0 10 -4 10 -10z m50 -35 c0 -8 -4 -15 -10 -15 -5 0
-7 7 -4 15 4 8 8 15 10 15 2 0 4 -7 4 -15z m27 -7 c-3 -8 -6 -5 -6 6 -1 11 2
17 5 13 3 -3 4 -12 1 -19z m-77 -7 c0 -3 -4 -12 -9 -20 -7 -11 -11 -10 -20 6
-5 11 -8 23 -5 26 7 7 34 -3 34 -12z m160 -20 c0 -6 -4 -13 -10 -16 -5 -3 -10
1 -10 9 0 9 5 16 10 16 6 0 10 -4 10 -9z m-57 -31 c3 -11 1 -18 -4 -14 -5 3
-9 12 -9 20 0 20 7 17 13 -6z m-153 0 c0 -5 -2 -10 -4 -10 -3 0 -8 5 -11 10
-3 6 -1 10 4 10 6 0 11 -4 11 -10z m317 -15 c0 -8 -4 -12 -9 -9 -4 3 -8 9 -8
15 0 5 4 9 8 9 5 0 9 -7 9 -15z m68 6 c3 -5 0 -13 -6 -17 -7 -4 -9 -3 -5 4 3
5 0 13 -6 15 -9 4 -10 6 -1 6 6 1 14 -3 18 -8z m-286 -15 c-2 -2 -17 -6 -34
-10 -22 -5 -26 -4 -15 4 14 9 59 15 49 6z m-19 -35 c-5 -11 -15 -23 -20 -26
-14 -9 -12 19 2 33 19 19 30 14 18 -7z m80 -45 c0 -2 -7 -9 -15 -16 -12 -10
-15 -10 -15 4 0 9 7 16 15 16 8 0 15 -2 15 -4z m97 -82 c-3 -3 -12 -4 -19 -1
-8 3 -5 6 6 6 11 1 17 -2 13 -5z"/>
<path d="M610 669 c0 -5 5 -7 10 -4 6 3 10 8 10 11 0 2 -4 4 -10 4 -5 0 -10
-5 -10 -11z"/>
<path d="M131 663 c-1 -7 -8 -13 -16 -13 -12 0 -13 -4 -4 -19 8 -11 19 -16 31
-13 10 2 16 7 13 10 -2 3 1 12 8 20 10 13 9 15 -5 9 -9 -3 -19 -1 -22 6 -3 9
-5 9 -5 0z"/>
<path d="M562 630 c0 -14 2 -19 5 -12 2 6 2 18 0 25 -3 6 -5 1 -5 -13z"/>
<path d="M673 599 c3 -9 0 -22 -6 -28 -8 -8 -8 -14 1 -23 9 -9 16 -8 29 5 16
16 16 18 -6 40 -17 15 -22 17 -18 6z"/>
<path d="M108 541 c-10 -3 -14 -11 -10 -18 5 -7 13 -9 21 -4 19 12 10 30 -11
22z"/>
<path d="M686 483 c7 -36 -9 -45 -36 -20 -12 10 -12 9 -1 -5 17 -23 38 -23 50
1 7 13 6 24 -4 37 -13 17 -14 16 -9 -13z"/>
<path d="M110 400 c0 -11 4 -20 9 -20 5 0 7 9 4 20 -3 11 -7 20 -9 20 -2 0 -4
-9 -4 -20z"/>
<path d="M738 395 c-4 -4 -5 -28 -2 -54 5 -42 4 -45 -10 -27 -9 10 -13 23 -10
27 3 5 0 9 -5 9 -6 0 -11 -4 -11 -10 0 -5 -6 -7 -13 -4 -8 3 -14 -2 -14 -10 0
-8 4 -13 9 -10 5 4 15 -2 22 -11 10 -14 18 -16 37 -9 24 9 24 11 14 57 -6 27
-13 45 -17 42z"/>
<path d="M140 376 c0 -12 -5 -16 -15 -13 -8 4 -16 3 -19 -1 -3 -4 4 -9 15 -9
20 -2 37 22 25 34 -3 4 -6 -2 -6 -11z"/>
<path d="M205 360 c3 -5 1 -10 -5 -10 -7 0 -9 -7 -6 -16 5 -14 4 -15 -9 -4
-11 9 -15 9 -15 1 0 -19 30 -25 46 -9 15 15 10 48 -8 48 -5 0 -6 -4 -3 -10z"/>
<path d="M555 340 c3 -5 8 -10 11 -10 2 0 4 5 4 10 0 6 -5 10 -11 10 -5 0 -7
-4 -4 -10z"/>
<path d="M520 319 c0 -12 10 -23 25 -29 14 -5 25 -15 25 -22 0 -10 2 -10 9 1
6 9 11 10 15 2 4 -6 12 -11 19 -11 8 0 8 3 -1 12 -7 7 -12 21 -12 33 -1 19 -2
19 -14 3 -12 -17 -15 -16 -40 7 -24 22 -26 23 -26 4z"/>
<path d="M645 330 c-3 -5 -12 -7 -20 -3 -11 4 -13 1 -9 -11 3 -9 10 -14 14
-11 4 3 10 -2 14 -10 3 -8 16 -14 28 -14 17 1 18 2 6 6 -16 4 -23 21 -19 46 1
10 -7 9 -14 -3z"/>
<path d="M793 282 c-13 -12 -23 -31 -23 -42 0 -10 -25 -67 -56 -126 -50 -98
-60 -125 -37 -111 5 3 28 50 53 104 24 54 54 110 67 124 15 17 23 36 21 50
l-3 24 -22 -23z"/>
<path d="M350 290 c0 -5 5 -10 10 -10 6 0 10 5 10 10 0 6 -4 10 -10 10 -5 0
-10 -4 -10 -10z"/>
<path d="M493 270 c6 -16 15 -30 20 -30 5 0 6 7 3 16 -3 9 -6 22 -6 30 0 8 -6
14 -14 14 -12 0 -12 -5 -3 -30z"/>
<path d="M458 260 c2 -16 8 -30 13 -30 10 0 11 7 3 38 -9 33 -21 27 -16 -8z"/>
<path d="M428 250 c3 -21 8 -28 14 -22 12 12 7 44 -8 49 -7 2 -9 -8 -6 -27z"/>
<path d="M362 244 c2 -15 8 -29 14 -31 7 -2 10 6 6 22 -6 35 -24 44 -20 9z"/>
<path d="M390 253 c0 -12 5 -25 11 -28 16 -11 17 -2 2 25 -12 24 -13 24 -13 3z"/>
<path d="M300 244 c0 -8 7 -14 15 -14 7 0 19 -8 24 -17 10 -17 10 -16 11 2 0
12 -11 25 -25 32 -20 9 -25 8 -25 -3z"/>
<path d="M110 236 c0 -34 14 -76 24 -76 9 0 10 11 2 45 -10 42 -26 62 -26 31z"/>
<path d="M147 239 c6 -6 9 -18 6 -27 -4 -10 -2 -13 5 -8 18 11 14 46 -5 46
-13 0 -14 -3 -6 -11z"/>
<path d="M250 239 c0 -9 11 -21 25 -27 16 -7 25 -8 25 -1 0 5 -8 13 -17 16
-10 4 -21 11 -25 17 -5 7 -8 5 -8 -5z"/>
<path d="M185 230 c-3 -6 1 -7 9 -4 17 7 22 -11 6 -21 -13 -8 -13 -35 0 -35 5
0 7 6 4 14 -3 8 -1 17 5 21 6 3 11 -1 11 -9 0 -9 5 -16 11 -16 6 0 8 7 5 16
-3 9 -6 22 -6 30 0 16 -36 19 -45 4z"/>
<path d="M824 164 c-4 -10 -20 -50 -36 -87 -16 -38 -27 -71 -24 -75 8 -7 7 -9
45 86 18 46 30 86 27 89 -3 3 -9 -3 -12 -13z"/>
</g>
</svg>
