<svg width="299" height="138" viewBox="0 0 299 138" fill="none" xmlns="http://www.w3.org/2000/svg">
<path d="M296.794 29.5728C298.773 36.9575 296.738 45.1641 291.12 53.7589C285.501 62.353 276.361 71.2336 264.351 79.8735C240.339 97.149 205.039 113.335 164.142 124.293C123.245 135.251 84.5816 138.884 55.1487 135.929C40.4284 134.451 28.0719 131.331 18.9094 126.697C9.74612 122.063 3.88054 115.974 1.90182 108.589C-0.0769129 101.204 1.95802 92.9978 7.57663 84.403C13.1948 75.8088 22.3357 66.9283 34.3449 58.2884C58.3571 41.0129 93.6572 24.8272 134.554 13.8689C175.451 2.91066 214.115 -0.722231 243.548 2.23268C258.268 3.71051 270.624 6.83081 279.787 11.4645C288.95 16.0985 294.816 22.1881 296.794 29.5728Z" stroke="#FF0000" stroke-width="2"/>
</svg>
