<svg width="80" height="80" viewBox="0 0 80 80" fill="none" xmlns="http://www.w3.org/2000/svg">
<path d="M70.3038 69.0916C70.3038 71.8171 67.0808 74.3107 61.7522 76.2216L56.4928 75.1462L48.1006 79.2352C46.4055 79.4446 44.6427 79.6135 42.8284 79.7391L17.5361 77.0088L7.85125 75.964C2.94281 74.0885 0 71.6963 0 69.0916C0 66.4918 2.92984 64.1043 7.82234 62.2288C10.6847 61.1326 14.2183 60.2101 18.2284 59.5259C23.248 58.6693 29.0161 58.1816 35.1511 58.1816C37.3856 58.1816 39.5717 58.246 41.6903 58.3716C45.8823 58.6148 49.812 59.0896 53.3377 59.7529C56.5798 60.363 59.4792 61.1309 61.9245 62.0227C67.15 63.9255 70.3038 66.3951 70.3038 69.0916Z" fill="#7888AF"/>
<path d="M17.2769 68.8774L17.5361 77.0088L7.85125 75.964C2.94281 74.0885 0 71.6963 0 69.0917C0 66.4918 2.92984 64.1043 7.82234 62.2288C10.6847 61.1326 14.2183 60.2101 18.2284 59.5259C17.5859 62.1901 17.1948 65.3004 17.2769 68.8774Z" fill="#5972A5"/>
<path d="M58.069 56.9971L57.8601 57.043C55.9565 57.4622 54.0733 56.2589 53.6541 54.3554L46.9976 24.1316L54.1001 22.5674L60.7566 52.7911C61.176 54.6947 59.9727 56.5777 58.069 56.9971Z" fill="#7888AF"/>
<path d="M76.2088 21.4223L47.5052 27.7424L46.5055 27.963L26.4532 32.379C23.8483 32.9537 21.2727 31.3068 20.698 28.7021L18.0836 16.8279C17.5089 14.223 19.1558 11.6459 21.7605 11.0727L42.2379 6.56195L42.4519 6.51523L71.516 0.11445C74.1207 -0.460394 76.6964 1.18648 77.2711 3.79132L79.8855 15.6655C80.4604 18.2718 78.8135 20.8476 76.2088 21.4223Z" fill="#FBF198"/>
<path d="M47.5052 27.7425L46.5055 27.9631L26.4532 32.3789C23.8483 32.9536 21.2727 31.3067 20.698 28.702L18.0836 16.8278C17.5089 14.2229 19.1558 11.6458 21.7605 11.0726L42.2379 6.56186L42.4519 6.51514C41.8016 8.90732 41.1946 13.064 42.5388 18.2897C43.6302 22.5362 45.2722 25.6609 47.5052 27.7425Z" fill="#FAD989"/>
<path d="M38.2338 56.9232L34.068 52.7132L36.1311 49.3156C37.4974 47.0656 40.6144 46.6985 42.4658 48.5698C44.3172 50.441 43.9174 53.5538 41.653 54.8963L38.2338 56.9232Z" fill="#EAAA83"/>
<path d="M12.6752 56.9234L16.841 52.7134L14.7779 49.3156C13.4116 47.0656 10.2946 46.6985 8.44318 48.5698C6.59178 50.441 6.99162 53.5538 9.25599 54.8963L12.6752 56.9234Z" fill="#DF8A57"/>
<path d="M43.5931 68.3077C43.5689 68.5733 43.1665 74.9355 42.8284 79.7393C40.3573 79.9099 37.7879 80.0001 35.151 80.0001C28.7535 80.0001 22.7537 79.4688 17.5861 78.5416L10.4706 66.5627L15.899 51.1613C18.1496 49.7624 20.735 48.8399 23.5217 48.5436C24.164 48.4744 24.8176 48.439 25.4792 48.439C30.1123 48.439 34.3012 50.1583 37.4887 52.9658C39.2273 54.4968 40.6521 56.3352 41.6904 58.3718C43.2228 61.3677 43.9279 64.7933 43.5931 68.3077Z" fill="#F2C7AE"/>
<path d="M17.2769 68.8774L17.5859 78.5413C13.8544 77.8716 10.554 76.9958 7.85124 75.9639C7.60327 72.1277 7.38108 68.4863 7.36499 68.2978C7.17014 66.2002 7.34077 64.1574 7.82217 62.2288C8.72686 58.5969 10.7328 55.3708 13.484 52.9544C16.2128 50.5542 19.6755 48.9524 23.5215 48.5435C21.2226 51.3106 17.0273 57.8999 17.2769 68.8774Z" fill="#EAAA83"/>
<path d="M32.1036 51.8325C31.025 51.723 30.1413 51.4992 29.5183 51.3012C28.8502 51.0872 28.1741 51.6183 28.2321 52.317C28.2803 52.908 28.5074 53.4503 28.7552 53.8834C29.0724 54.4372 28.7777 55.1439 28.1628 55.3162C27.9583 55.3727 27.7621 55.4241 27.5705 55.4675L23.5217 54.2311L20.6642 51.005L18.2075 49.9473C19.0141 48.3278 20.3696 47.3636 21.6946 46.7905C22.6202 46.3895 23.6006 46.1594 24.5922 46.0869C25.7931 45.9983 27.0119 46.1433 28.1806 46.5006C31.3633 47.4778 32.6271 49.2391 33.1294 50.485C33.4077 51.1756 32.8442 51.9081 32.1036 51.8325Z" fill="#FFF4E5"/>
<path d="M27.5704 55.4675C23.3768 56.4318 22.1066 54.3164 21.7218 52.9482C21.5818 52.4507 21.0779 52.1383 20.5724 52.2463C19.7932 52.4138 19.0672 52.3382 18.5263 52.2141C17.9757 52.0902 17.6377 51.5218 17.8004 50.9794C18.4813 48.7208 20.1088 47.4763 21.6946 46.7905C22.6202 46.3896 23.6007 46.1594 24.5922 46.0869C23.9804 47.626 22.794 52.0596 27.5704 55.4675Z" fill="#FFE0B7"/>
<path d="M30.303 75.1468C27.632 75.1468 25.4592 72.974 25.4592 70.303C25.4592 69.6362 25.9999 69.0957 26.6666 69.0957C27.3333 69.0957 27.8739 69.6362 27.8739 70.303C27.8739 71.6423 28.9636 72.7319 30.303 72.7319C31.6424 72.7319 32.732 71.6423 32.732 70.303C32.732 69.6362 33.2727 69.0957 33.9394 69.0957C34.6063 69.0957 35.1467 69.6362 35.1467 70.303C35.1467 72.974 32.9738 75.1468 30.303 75.1468Z" fill="#EAAA83"/>
<path d="M25.4502 70.304C25.4502 72.9748 23.2769 75.1464 20.6061 75.1464C19.3971 75.1464 18.2896 74.7022 17.4396 73.9631C16.4126 73.0776 15.7621 71.7656 15.7621 70.304C15.7621 69.6359 16.303 69.0967 16.9694 69.0967C17.079 69.0967 17.1852 69.1112 17.2849 69.1401C17.7985 69.277 18.1768 69.7454 18.1768 70.3042C18.1768 71.6418 19.2666 72.7318 20.606 72.7318C21.9454 72.7318 23.0352 71.642 23.0352 70.3042C23.0352 69.6361 23.5761 69.0968 24.2426 69.0968C24.9093 69.0967 25.4502 69.6359 25.4502 70.304Z" fill="#EAAA83"/>
<path d="M17.4396 73.9631C16.4126 73.0776 15.7621 71.7656 15.7621 70.304C15.7621 69.6359 16.303 69.0967 16.9694 69.0967C17.079 69.0967 17.1852 69.1112 17.2849 69.1401L17.4396 73.9631Z" fill="#DF8A57"/>
<path d="M61.7521 76.2217C58.0801 77.5401 53.4082 78.5833 48.1006 79.2353C49.4706 75.7903 52.18 68.2384 53.3375 59.753C53.5257 58.3717 53.6739 56.9647 53.7673 55.5479C53.8961 53.6194 55.4995 52.1206 57.4314 52.1206C58.3329 52.1206 59.1668 52.4473 59.8123 52.998C60.4579 53.5469 60.9134 54.3197 61.0584 55.2098C61.3434 56.9614 61.6814 59.339 61.9245 62.0226C62.3237 66.4048 62.475 71.603 61.7521 76.2217Z" fill="#F2C7AE"/>
<path d="M75.0224 10.5122C74.1605 6.59858 70.276 4.11545 66.3613 4.97764C62.4382 5.84139 59.9627 9.71577 60.8266 13.6387C61.5732 17.0281 64.5871 19.3442 67.9235 19.3442C72.5626 19.3444 76.0196 15.0398 75.0224 10.5122ZM68.9685 16.8153C66.3551 17.3908 63.7605 15.733 63.1849 13.1194C62.5183 10.0917 64.8254 7.2217 67.9255 7.2217C70.1532 7.2217 72.1658 8.76858 72.6644 11.0315C73.2397 13.645 71.5818 16.2395 68.9685 16.8153Z" fill="#7888AF"/>
<path d="M51.2121 20.7257L47.6562 21.509L45.3087 10.8506C45.1651 10.1993 44.5207 9.78667 43.8699 9.9312C43.2187 10.0746 42.807 10.7189 42.9506 11.3699L45.5578 23.2076C45.701 23.8584 46.3459 24.2709 46.9965 24.127L51.7315 23.084C52.3828 22.9406 52.7945 22.2964 52.6509 21.6453C52.5074 20.9937 51.8628 20.581 51.2121 20.7257Z" fill="#7888AF"/>
<path d="M60.6822 18.6401L57.1262 19.4234L54.7789 8.76498C54.6353 8.11388 53.9911 7.70154 53.3402 7.8456C52.6891 7.98904 52.2772 8.63326 52.4208 9.28435L55.0278 21.122C55.1711 21.7728 55.8159 22.1853 56.4666 22.0414L61.2016 20.9984C61.8527 20.855 62.2645 20.2108 62.1209 19.5597C61.9773 18.9083 61.3331 18.4959 60.6822 18.6401Z" fill="#7888AF"/>
<path d="M31.1037 13.9793C30.9603 13.3282 30.3168 12.916 29.6648 13.0599C29.0137 13.2033 28.602 13.8476 28.7453 14.4987L29.7445 19.0354L25.0001 20.0804L24.0009 15.5437C23.8574 14.8927 23.2137 14.4801 22.5621 14.6243C21.911 14.7677 21.4993 15.4119 21.6426 16.063L24.2498 27.9005C24.3937 28.5538 25.0398 28.9633 25.6885 28.8199C26.3398 28.6765 26.7513 28.0323 26.6079 27.3812L25.5193 22.4385L30.2637 21.3935L31.3523 26.3363C31.4962 26.9896 32.1423 27.3991 32.791 27.2557C33.4423 27.1123 33.8538 26.468 33.7104 25.8169L31.1037 13.9793Z" fill="#5972A5"/>
<path d="M41.7419 22.8116L38.1862 23.5949L37.4019 20.0343L40.6088 19.328C41.2599 19.1846 41.6718 18.5405 41.5282 17.8893C41.3849 17.2382 40.7405 16.8263 40.0894 16.9699L36.8827 17.6762L36.0985 14.1157L39.6544 13.3324C40.3057 13.189 40.7173 12.5447 40.5738 11.8937C40.4304 11.2424 39.786 10.831 39.1349 10.9743L34.3999 12.0172C33.7488 12.1607 33.3371 12.8049 33.4805 13.456L36.0877 25.2937C36.3021 26.2672 37.1134 26.3038 37.9457 26.123L42.2615 25.1701C42.9127 25.0266 43.3244 24.3824 43.1809 23.7313C43.0374 23.0799 42.393 22.668 41.7419 22.8116Z" fill="#5972A5"/>
<path d="M18.1817 65.45C17.5148 65.45 16.9744 64.9095 16.9744 64.2426C16.9744 63.6865 16.5219 63.2342 15.9658 63.2342C15.4097 63.2342 14.9572 63.6867 14.9572 64.2426C14.9572 64.9095 14.4165 65.45 13.7498 65.45C13.0829 65.45 12.5425 64.9095 12.5425 64.2426C12.5425 62.355 14.0783 60.8193 15.9659 60.8193C17.8536 60.8193 19.3894 62.355 19.3894 64.2426C19.3892 64.9095 18.8486 65.45 18.1817 65.45Z" fill="#495560"/>
<path d="M37.1591 65.45C36.4922 65.45 35.9517 64.9095 35.9517 64.2426C35.9517 63.6865 35.4992 63.2342 34.9431 63.2342C34.3871 63.2342 33.9347 63.6867 33.9347 64.2426C33.9347 64.9095 33.3941 65.45 32.7274 65.45C32.0606 65.45 31.52 64.9095 31.52 64.2426C31.52 62.355 33.0556 60.8193 34.9433 60.8193C36.831 60.8193 38.3667 62.355 38.3667 64.2426C38.3666 64.9095 37.826 65.45 37.1591 65.45Z" fill="#495560"/>
<path d="M29.2687 68.0333C29.2687 65.676 27.5611 65.4546 25.4545 65.4546C23.3479 65.4546 21.6401 65.676 21.6401 68.0333C21.6401 70.3905 23.3478 72.3015 25.4545 72.3015C27.5611 72.3015 29.2687 70.3905 29.2687 68.0333Z" fill="#495560"/>
</svg>
