<svg width="89" height="79" viewBox="0 0 89 79" fill="none" xmlns="http://www.w3.org/2000/svg">
<path d="M86.6041 19.2821C77.6497 6.97597 66.6674 -0.290652 62.0742 3.0515C57.481 6.39365 61.0164 19.079 69.9707 31.3851C74.989 38.2818 80.6333 42.7258 82.5777 41.311C84.522 39.8962 82.0301 33.1584 77.0119 26.2617C68.0575 13.9556 57.0751 6.689 52.482 10.0311C47.8888 13.3733 51.424 26.0587 60.3784 38.3648C65.3966 45.2615 71.041 49.7055 72.9855 48.2906C74.9298 46.8759 72.4379 40.1381 67.4196 33.2414C58.4653 20.9353 47.46 13.6853 42.8387 17.0479C38.2174 20.4106 41.7298 33.1126 50.6841 45.4187C55.7024 52.3154 61.3468 56.7593 63.2912 55.3445C65.2356 53.9297 62.7435 47.1921 57.7252 40.2954C48.7708 27.9893 37.7886 20.7225 33.1954 24.0647C28.6022 27.4069 32.1377 40.0921 41.0921 52.3982C46.1104 59.2949 51.7545 63.7391 53.6989 62.3242C55.6433 60.9094 53.1514 54.1716 48.1332 47.2749C39.1788 34.9688 28.1963 27.7023 23.6031 31.0444C19.0099 34.3866 22.5454 47.0718 31.4998 59.3779C36.518 66.2746 42.1624 70.7186 44.1066 69.3039C46.051 67.8891 43.5591 61.1513 38.5408 54.2546C29.5865 41.9485 18.604 34.682 14.0111 38.0239C9.41786 41.3661 12.9531 54.0515 21.9075 66.3576C26.9257 73.2543 32.5701 77.6983 34.5145 76.2834C36.4586 74.8688 33.9668 68.131 28.9485 61.2343C19.9942 48.9282 8.98909 41.6781 4.36778 45.0407C-0.253537 48.4034 3.25884 61.1054 12.2132 73.4115" stroke="white" stroke-opacity="0.5" stroke-width="3" stroke-linecap="round"/>
</svg>
