<svg width="58" height="40" viewBox="0 0 58 40" fill="none" xmlns="http://www.w3.org/2000/svg">
<path d="M11.375 26.0751C10.1375 29.1875 8.18754 32.2625 5.58127 35.2251C4.75627 36.1626 4.64377 37.5125 5.31875 38.5625C5.84381 39.3875 6.70623 39.8375 7.64373 39.8375C7.90625 39.8375 8.16879 39.8188 8.43131 39.725C13.9437 38.1125 26.8251 32.3938 27.1813 14.0563C27.3125 6.98758 22.1376 0.912595 15.4062 0.218845C11.675 -0.156174 7.96256 1.0625 5.20625 3.53752C2.45006 6.03131 0.875 9.59384 0.875 13.3063C0.875 19.4938 5.26256 24.9126 11.375 26.0751Z" fill="#FF0000"/>
<path d="M45.331 0.218845C41.6184 -0.156174 37.9059 1.0625 35.1497 3.53752C32.3934 6.03131 30.8184 9.59385 30.8184 13.3063C30.8184 19.4938 35.2059 24.9126 41.3184 26.0751C40.0809 29.1875 38.1309 32.2625 35.5246 35.2251C34.6996 36.1626 34.5871 37.5125 35.2622 38.5625C35.7872 39.3875 36.6497 39.8375 37.5872 39.8375C37.8496 39.8375 38.1121 39.8188 38.3747 39.725C43.8872 38.1125 56.7684 32.3938 57.1247 14.0562V13.7938C57.1247 6.83754 52.006 0.912595 45.331 0.218845Z" fill="#FF0000"/>
</svg>
